<?xml version="1.0" encoding="utf-8"?>
<!-- Generator: Adobe Adobe Illustrator 24.2.0, SVG Export Plug-In . SVG Version: 6.00 Build 0)  -->
<svg version="1.1" id="Layer_1" xmlns="http://www.w3.org/2000/svg" xmlns:xlink="http://www.w3.org/1999/xlink" x="0px" y="0px"
	 width="88.22px" height="87.63px" viewBox="0 0 88.22 87.63" style="enable-background:new 0 0 88.22 87.63;" xml:space="preserve"
	>
<style type="text/css">
	.st0{stroke:#000000;stroke-width:2.593220e-03;stroke-linejoin:round;stroke-miterlimit:2.5932;}
	.st1{fill:none;stroke:#000000;stroke-width:5;stroke-linejoin:round;stroke-miterlimit:2.5932;}
	.st2{stroke:#000000;stroke-width:5;stroke-linejoin:round;stroke-miterlimit:2.5932;}
	.st3{fill:none;stroke:#DD1414;stroke-width:5;stroke-linejoin:round;stroke-miterlimit:2.5932;}
</style>
<g>
	<g>
		<g>
			<path class="st0" d="M4.45,67.63c0.87,0,1.57,0.72,1.57,1.6l-0.1,16.68c0,0.88-0.72,1.58-1.59,1.58l-2.76-0.02
				C0.7,87.46,0,86.75,0,85.87l0.1-16.68c0.01-0.88,0.72-1.58,1.59-1.58L4.45,67.63z"/>
			<path class="st0" d="M19.72,86.09c-0.01,0.88-0.72,1.58-1.59,1.57L1.57,87.5C0.7,87.49,0,86.78,0.01,85.9l0.03-2.78
				c0.01-0.88,0.72-1.58,1.59-1.57l16.56,0.16c0.87,0.01,1.57,0.73,1.56,1.6L19.72,86.09z"/>
		</g>
		<g>
			<path class="st0" d="M19.75,4.45c0,0.88-0.71,1.59-1.57,1.59L1.68,6.02c-0.87,0-1.57-0.72-1.57-1.6l0-2.79
				c0-0.88,0.71-1.59,1.57-1.59l16.5,0.02c0.87,0,1.57,0.72,1.57,1.6L19.75,4.45z"/>
			<path class="st0" d="M1.56,19.98C0.7,19.97,0,19.25,0,18.37L0.08,1.63c0-0.88,0.71-1.59,1.58-1.59l2.75,0.01
				c0.87,0,1.57,0.72,1.56,1.6L5.89,18.4c0,0.88-0.71,1.59-1.58,1.59L1.56,19.98z"/>
		</g>
		<g>
			<g>
				<path class="st0" d="M70.13,83.25c0-0.88,0.7-1.59,1.57-1.59h16.5c0.87,0,1.57,0.71,1.57,1.59v2.79c0,0.88-0.7,1.6-1.57,1.6
					H71.7c-0.87,0-1.57-0.71-1.57-1.6V83.25z"/>
				<path class="st0" d="M88.29,67.69c0.87,0,1.57,0.72,1.56,1.6L89.8,86.04c0,0.88-0.71,1.59-1.58,1.59l-2.75-0.01
					c-0.87,0-1.57-0.72-1.57-1.6l0.06-16.75c0-0.88,0.71-1.59,1.58-1.59L88.29,67.69z"/>
			</g>
			<g>
				<path class="st0" d="M85.4,20.05c-0.87-0.01-1.57-0.72-1.57-1.6l0.12-16.68c0.01-0.88,0.72-1.58,1.59-1.58l2.76,0.02
					c0.87,0.01,1.57,0.72,1.57,1.6L89.75,18.5c-0.01,0.88-0.72,1.58-1.59,1.58L85.4,20.05z"/>
				<path class="st0" d="M70.15,1.57c0.01-0.88,0.72-1.58,1.59-1.57L88.3,0.18c0.87,0.01,1.57,0.73,1.56,1.61l-0.03,2.78
					c-0.01,0.88-0.72,1.58-1.59,1.57L71.68,5.96c-0.87-0.01-1.57-0.73-1.56-1.61L70.15,1.57z"/>
			</g>
		</g>
	</g>
	<g>
		<g>
			<g>
				<path class="st1" d="M70.61,37.03L70.48,61.6c-0.03,5.58-4.58,10.07-10.15,10.04l-32.31-0.18c-5.58-0.03-10.07-4.57-10.04-10.15
					l0.13-24.57"/>
				<path class="st1" d="M70.61,32.7l0-6.5c0.01-5.58-4.5-10.11-10.08-10.12l-32.31-0.07c-5.58-0.01-10.11,4.5-10.12,10.08l0,6.35"
					/>
			</g>
			<g>
				<g>
					<path class="st2" d="M26.18,28.78c0-0.89,0.72-1.61,1.61-1.61c0.89,0,1.61,0.72,1.61,1.61c0,0.89-0.72,1.61-1.61,1.61
						C26.9,30.38,26.18,29.67,26.18,28.78z"/>
					<path class="st2" d="M38.42,27.17h22.63v2.02H38.42V27.17z"/>
				</g>
				<g>
					<path class="st2" d="M26.18,42.21c0-0.89,0.72-1.61,1.61-1.61c0.89,0,1.61,0.72,1.61,1.61c0,0.89-0.72,1.61-1.61,1.61
						C26.9,43.82,26.18,43.1,26.18,42.21z"/>
					<path class="st2" d="M38.42,40.61h22.63v2.02H38.42V40.61z"/>
				</g>
				<g>
					<path class="st2" d="M26.18,55.7c0-0.89,0.72-1.61,1.61-1.61c0.89,0,1.61,0.72,1.61,1.61c0,0.89-0.72,1.61-1.61,1.61
						C26.9,57.31,26.18,56.59,26.18,55.7z"/>
					<path class="st2" d="M38.42,54.1h22.63v2.02H38.42V54.1z"/>
				</g>
			</g>
			<path class="st3" d="M9.6,36.74h70.68l0,0H9.6L9.6,36.74z"/>
		</g>
	</g>
</g>
</svg>
