<?xml version="1.0" encoding="utf-8"?>
<!-- Generator: Adobe Adobe Illustrator 24.2.0, SVG Export Plug-In . SVG Version: 6.00 Build 0)  -->
<svg version="1.1" xmlns="http://www.w3.org/2000/svg" xmlns:xlink="http://www.w3.org/1999/xlink" x="0px" y="0px"
	 width="304.51px" height="87.69px" viewBox="0 0 304.51 87.69" style="enable-background:new 0 0 304.51 87.69;"
	 xml:space="preserve">
<style type="text/css">
	.st0{fill:none;stroke:#000000;stroke-width:5;stroke-linejoin:round;stroke-miterlimit:2.5932;}
	.st1{stroke:#000000;stroke-width:5;stroke-linejoin:round;stroke-miterlimit:2.5932;}
	.st2{fill:none;stroke:#DD1414;stroke-width:5;stroke-linejoin:round;stroke-miterlimit:2.5932;}
	.st3{stroke:#000000;stroke-width:2.593220e-03;stroke-linejoin:round;stroke-miterlimit:2.5932;}
</style>
<g id="Layer_1">
</g>
<g id="The_budget_app_layer">
	<g>
		<path d="M106.51,58.44h4.74v1.04h-1.75v4.81h-1.23v-4.81h-1.76V58.44z"/>
		<path d="M114.5,61.1c-0.1-0.2-0.3-0.3-0.59-0.3c-0.3,0-0.53,0.1-0.68,0.3c-0.15,0.2-0.23,0.48-0.23,0.85v2.34h-1.13v-5.83H113
			v2.07c0.16-0.25,0.35-0.43,0.57-0.53c0.22-0.1,0.44-0.15,0.68-0.15c0.27,0,0.51,0.05,0.73,0.14c0.22,0.09,0.4,0.23,0.54,0.42
			c0.12,0.16,0.19,0.33,0.22,0.5c0.03,0.17,0.04,0.45,0.04,0.84v2.54h-1.15v-2.63C114.62,61.43,114.58,61.24,114.5,61.1z"/>
		<path d="M118.58,64.43c-0.55,0-1.04-0.18-1.46-0.53c-0.42-0.35-0.63-0.93-0.63-1.73c0-0.75,0.19-1.32,0.57-1.72
			c0.38-0.4,0.87-0.6,1.48-0.6c0.36,0,0.68,0.07,0.97,0.2c0.29,0.14,0.53,0.35,0.71,0.64c0.17,0.26,0.28,0.55,0.33,0.89
			c0.03,0.2,0.04,0.48,0.04,0.86h-2.96c0.02,0.43,0.15,0.74,0.41,0.91c0.16,0.11,0.34,0.16,0.56,0.16c0.23,0,0.42-0.07,0.57-0.2
			c0.08-0.07,0.15-0.17,0.21-0.3h1.16c-0.03,0.26-0.16,0.52-0.4,0.78C119.76,64.22,119.24,64.43,118.58,64.43z M118.54,60.78
			c-0.26,0-0.47,0.08-0.61,0.25c-0.14,0.16-0.23,0.39-0.27,0.67h1.76c-0.02-0.3-0.11-0.53-0.27-0.68
			C118.98,60.86,118.78,60.78,118.54,60.78z"/>
		<path d="M126.37,64.29h-2.65v-5.85h2.84c0.72,0.01,1.23,0.22,1.52,0.62c0.18,0.25,0.27,0.55,0.27,0.89c0,0.36-0.09,0.64-0.27,0.86
			c-0.1,0.12-0.25,0.23-0.44,0.33c0.3,0.11,0.52,0.28,0.68,0.52c0.15,0.24,0.23,0.52,0.23,0.86c0,0.35-0.09,0.66-0.26,0.93
			c-0.11,0.18-0.25,0.34-0.42,0.46c-0.19,0.14-0.41,0.24-0.67,0.29C126.94,64.26,126.67,64.29,126.37,64.29z M126.92,63.17
			c0.26-0.13,0.39-0.37,0.39-0.73c0-0.3-0.13-0.51-0.38-0.63c-0.14-0.06-0.34-0.1-0.59-0.1h-1.46v1.56h1.44
			C126.58,63.28,126.78,63.24,126.92,63.17z M126.87,59.55c-0.18-0.06-0.42-0.09-0.7-0.09h-1.29v1.29h1.44
			c0.26,0,0.46-0.05,0.62-0.14c0.16-0.1,0.24-0.27,0.24-0.51C127.19,59.82,127.08,59.64,126.87,59.55z"/>
		<path d="M132.2,62.32v-2.35h1.15v4.32h-1.1v-0.61c-0.01,0.01-0.04,0.05-0.08,0.12c-0.04,0.07-0.09,0.12-0.15,0.17
			c-0.18,0.16-0.35,0.27-0.51,0.33c-0.17,0.06-0.36,0.09-0.58,0.09c-0.64,0-1.07-0.23-1.29-0.69c-0.12-0.25-0.19-0.63-0.19-1.12
			v-2.61h1.16v2.61c0,0.25,0.03,0.43,0.09,0.56c0.1,0.22,0.31,0.33,0.61,0.33c0.39,0,0.65-0.16,0.79-0.47
			C132.16,62.82,132.2,62.6,132.2,62.32z"/>
		<path d="M136.72,64.25c-0.21,0.12-0.46,0.17-0.77,0.17c-0.5,0-0.93-0.2-1.28-0.61c-0.34-0.41-0.52-0.93-0.52-1.57
			c0-0.74,0.17-1.32,0.51-1.74c0.34-0.42,0.79-0.64,1.36-0.64c0.26,0,0.49,0.06,0.7,0.17c0.2,0.12,0.37,0.27,0.5,0.48v-2.06h1.15
			v5.84h-1.1v-0.6C137.12,63.95,136.93,64.14,136.72,64.25z M136.29,60.85c-0.33,0-0.57,0.13-0.73,0.37
			c-0.15,0.25-0.23,0.56-0.23,0.93c0,0.4,0.08,0.72,0.24,0.96c0.16,0.24,0.4,0.36,0.72,0.36c0.32,0,0.56-0.12,0.73-0.36
			c0.17-0.24,0.25-0.55,0.25-0.92c0-0.53-0.13-0.91-0.4-1.13C136.7,60.92,136.51,60.85,136.29,60.85z"/>
		<path d="M140.62,65.05c0.12,0.1,0.33,0.15,0.62,0.15c0.41,0,0.68-0.14,0.82-0.41c0.09-0.17,0.13-0.47,0.13-0.88v-0.28
			c-0.11,0.19-0.22,0.32-0.35,0.42c-0.22,0.17-0.52,0.26-0.88,0.26c-0.56,0-1-0.2-1.33-0.58c-0.33-0.39-0.5-0.92-0.5-1.59
			c0-0.64,0.16-1.18,0.48-1.62c0.32-0.44,0.77-0.66,1.36-0.66c0.22,0,0.41,0.03,0.57,0.1c0.27,0.11,0.5,0.32,0.67,0.63v-0.62h1.1
			v4.1c0,0.56-0.09,0.98-0.28,1.26c-0.32,0.49-0.94,0.73-1.86,0.73c-0.55,0-1-0.11-1.35-0.33c-0.35-0.22-0.54-0.54-0.58-0.97h1.23
			C140.5,64.9,140.55,64.99,140.62,65.05z M141.25,60.85c-0.4,0-0.67,0.19-0.82,0.56c-0.08,0.2-0.12,0.44-0.12,0.73
			c0,0.25,0.04,0.47,0.13,0.67c0.15,0.36,0.43,0.55,0.83,0.55c0.26,0,0.49-0.1,0.67-0.3c0.18-0.2,0.27-0.52,0.27-0.95
			c0-0.41-0.09-0.72-0.26-0.94C141.77,60.96,141.54,60.85,141.25,60.85z"/>
		<path d="M146.11,64.43c-0.55,0-1.04-0.18-1.46-0.53c-0.42-0.35-0.63-0.93-0.63-1.73c0-0.75,0.19-1.32,0.57-1.72
			c0.38-0.4,0.87-0.6,1.48-0.6c0.36,0,0.68,0.07,0.97,0.2c0.29,0.14,0.53,0.35,0.71,0.64c0.17,0.26,0.28,0.55,0.33,0.89
			c0.03,0.2,0.04,0.48,0.04,0.86h-2.96c0.02,0.43,0.15,0.74,0.41,0.91c0.16,0.11,0.34,0.16,0.56,0.16c0.23,0,0.42-0.07,0.57-0.2
			c0.08-0.07,0.15-0.17,0.21-0.3h1.15c-0.03,0.26-0.16,0.52-0.4,0.78C147.3,64.22,146.78,64.43,146.11,64.43z M146.07,60.78
			c-0.26,0-0.46,0.08-0.61,0.25c-0.14,0.16-0.23,0.39-0.27,0.67h1.76c-0.02-0.3-0.11-0.53-0.27-0.68
			C146.51,60.86,146.31,60.78,146.07,60.78z"/>
		<path d="M150.23,63.43c0.04,0.04,0.18,0.07,0.41,0.07c0.03,0,0.07,0,0.11,0c0.04,0,0.08,0,0.11-0.01v0.85l-0.54,0.02
			c-0.53,0.02-0.9-0.07-1.1-0.28c-0.13-0.13-0.19-0.33-0.19-0.6v-2.66h-0.6v-0.81h0.6V58.8h1.12v1.21h0.7v0.81h-0.7v2.29
			C150.16,63.27,150.19,63.38,150.23,63.43z"/>
		<path d="M152.75,59.97v4.32h-1.15v-4.32H152.75z M152.75,58.41v1.04h-1.15v-1.04H152.75z"/>
		<path d="M157.34,60.21c0.28,0.24,0.42,0.62,0.42,1.17v2.91h-1.16v-2.63c0-0.23-0.03-0.4-0.09-0.52c-0.11-0.22-0.32-0.33-0.63-0.33
			c-0.38,0-0.65,0.16-0.79,0.49c-0.07,0.17-0.11,0.39-0.11,0.66v2.34h-1.13v-4.32h1.09v0.63c0.15-0.22,0.28-0.38,0.41-0.48
			c0.23-0.17,0.53-0.26,0.89-0.26C156.69,59.86,157.06,59.98,157.34,60.21z"/>
		<path d="M160.03,65.05c0.12,0.1,0.33,0.15,0.61,0.15c0.41,0,0.68-0.14,0.82-0.41c0.09-0.17,0.13-0.47,0.13-0.88v-0.28
			c-0.11,0.19-0.22,0.32-0.35,0.42c-0.22,0.17-0.52,0.26-0.88,0.26c-0.56,0-1-0.2-1.33-0.58c-0.33-0.39-0.5-0.92-0.5-1.59
			c0-0.64,0.16-1.18,0.48-1.62c0.32-0.44,0.77-0.66,1.36-0.66c0.22,0,0.41,0.03,0.57,0.1c0.28,0.11,0.5,0.32,0.67,0.63v-0.62h1.1
			v4.1c0,0.56-0.09,0.98-0.28,1.26c-0.32,0.49-0.94,0.73-1.86,0.73c-0.55,0-1-0.11-1.35-0.33c-0.35-0.22-0.54-0.54-0.58-0.97h1.23
			C159.91,64.9,159.96,64.99,160.03,65.05z M160.66,60.85c-0.4,0-0.67,0.19-0.82,0.56c-0.08,0.2-0.12,0.44-0.12,0.73
			c0,0.25,0.04,0.47,0.13,0.67c0.15,0.36,0.43,0.55,0.83,0.55c0.26,0,0.49-0.1,0.67-0.3c0.18-0.2,0.27-0.52,0.27-0.95
			c0-0.41-0.09-0.72-0.26-0.94C161.18,60.96,160.95,60.85,160.66,60.85z"/>
		<path d="M169.18,58.44l2.07,5.85h-1.32l-0.38-1.2h-2.15l-0.4,1.2h-1.28l2.09-5.85H169.18z M168.48,59.78l-0.75,2.3h1.48
			L168.48,59.78z"/>
		<path d="M173.36,64.16c-0.12-0.09-0.25-0.23-0.36-0.42v2.25h-1.12v-6.03h1.08v0.64c0.12-0.19,0.25-0.34,0.39-0.44
			c0.25-0.19,0.55-0.29,0.9-0.29c0.5,0,0.93,0.19,1.28,0.56c0.35,0.37,0.53,0.92,0.53,1.64c0,0.76-0.17,1.34-0.51,1.74
			c-0.34,0.4-0.78,0.6-1.32,0.6C173.87,64.41,173.58,64.33,173.36,64.16z M173.91,63.47c0.32,0,0.56-0.12,0.72-0.37
			c0.17-0.24,0.25-0.57,0.25-0.97c0-0.33-0.08-0.63-0.23-0.88s-0.4-0.39-0.74-0.39c-0.41,0-0.69,0.19-0.84,0.58
			c-0.08,0.21-0.12,0.47-0.12,0.79c0,0.5,0.13,0.86,0.4,1.06C173.51,63.41,173.7,63.47,173.91,63.47z"/>
		<path d="M178.32,64.16c-0.12-0.09-0.25-0.23-0.36-0.42v2.25h-1.12v-6.03h1.08v0.64c0.12-0.19,0.25-0.34,0.39-0.44
			c0.25-0.19,0.55-0.29,0.9-0.29c0.5,0,0.93,0.19,1.28,0.56c0.35,0.37,0.53,0.92,0.53,1.64c0,0.76-0.17,1.34-0.51,1.74
			c-0.34,0.4-0.78,0.6-1.32,0.6C178.83,64.41,178.55,64.33,178.32,64.16z M178.88,63.47c0.32,0,0.56-0.12,0.72-0.37
			c0.17-0.24,0.25-0.57,0.25-0.97c0-0.33-0.08-0.63-0.23-0.88c-0.15-0.26-0.4-0.39-0.74-0.39c-0.41,0-0.69,0.19-0.84,0.58
			c-0.08,0.21-0.12,0.47-0.12,0.79c0,0.5,0.13,0.86,0.4,1.06C178.47,63.41,178.66,63.47,178.88,63.47z"/>
	</g>
</g>
<g id="App_icon_layer">
	<g>
		<g>
			<path class="st0" d="M72.33,37.04L72.2,61.61c-0.03,5.58-4.58,10.07-10.15,10.04l-32.31-0.18c-5.58-0.03-10.07-4.57-10.04-10.15
				l0.13-24.57"/>
			<path class="st0" d="M72.33,32.72l0-6.5c0.01-5.58-4.5-10.11-10.08-10.12l-32.31-0.07c-5.58-0.01-10.11,4.5-10.12,10.08l0,6.35"
				/>
		</g>
		<g>
			<g>
				<path class="st1" d="M27.9,28.79c0-0.89,0.72-1.61,1.61-1.61c0.89,0,1.61,0.72,1.61,1.61c0,0.89-0.72,1.61-1.61,1.61
					C28.62,30.4,27.9,29.68,27.9,28.79z"/>
				<path class="st1" d="M40.14,27.18h22.63v2.02H40.14V27.18z"/>
			</g>
			<g>
				<path class="st1" d="M27.9,42.23c0-0.89,0.72-1.61,1.61-1.61c0.89,0,1.61,0.72,1.61,1.61c0,0.89-0.72,1.61-1.61,1.61
					C28.62,43.83,27.9,43.11,27.9,42.23z"/>
				<path class="st1" d="M40.14,40.62h22.63v2.02H40.14V40.62z"/>
			</g>
			<g>
				<path class="st1" d="M27.9,55.71c0-0.89,0.72-1.61,1.61-1.61c0.89,0,1.61,0.72,1.61,1.61c0,0.89-0.72,1.61-1.61,1.61
					C28.62,57.32,27.9,56.6,27.9,55.71z"/>
				<path class="st1" d="M40.14,54.11h22.63v2.02H40.14V54.11z"/>
			</g>
		</g>
		<path class="st2" d="M11.32,36.75h70.68l0,0H11.32L11.32,36.75z"/>
	</g>
</g>
<g id="Bracket_right_layer">
	<g>
		<g>
			<path class="st3" d="M284.77,83.25c0-0.88,0.7-1.59,1.57-1.59h16.5c0.87,0,1.57,0.71,1.57,1.59v2.79c0,0.88-0.7,1.6-1.57,1.6
				h-16.5c-0.87,0-1.57-0.71-1.57-1.6V83.25z"/>
			<path class="st3" d="M302.94,67.69c0.87,0,1.57,0.72,1.56,1.6l-0.06,16.75c0,0.88-0.71,1.59-1.58,1.59l-2.75-0.01
				c-0.87,0-1.57-0.72-1.57-1.6l0.06-16.75c0-0.88,0.71-1.59,1.58-1.59L302.94,67.69z"/>
		</g>
		<g>
			<path class="st3" d="M300.04,20.05c-0.87-0.01-1.57-0.72-1.57-1.6l0.12-16.68c0.01-0.88,0.72-1.58,1.59-1.58l2.76,0.02
				c0.87,0.01,1.57,0.72,1.57,1.6l-0.12,16.68c-0.01,0.88-0.72,1.58-1.59,1.58L300.04,20.05z"/>
			<path class="st3" d="M284.79,1.57c0.01-0.88,0.72-1.58,1.59-1.57l16.56,0.18c0.87,0.01,1.57,0.73,1.56,1.61l-0.03,2.78
				c-0.01,0.88-0.72,1.58-1.59,1.57l-16.56-0.18c-0.87-0.01-1.57-0.73-1.56-1.61L284.79,1.57z"/>
		</g>
	</g>
</g>
<g id="Bracket_left_layer">
	<g>
		<path class="st3" d="M19.75,4.47c0,0.88-0.71,1.59-1.57,1.59L1.68,6.04c-0.87,0-1.57-0.72-1.57-1.6l0-2.79
			c0-0.88,0.71-1.59,1.57-1.59l16.5,0.02c0.87,0,1.57,0.72,1.57,1.6L19.75,4.47z"/>
		<path class="st3" d="M1.56,20C0.7,20,0,19.28,0,18.4L0.08,1.65c0-0.88,0.71-1.59,1.58-1.59l2.75,0.01c0.87,0,1.57,0.72,1.56,1.6
			L5.89,18.43c0,0.88-0.71,1.59-1.58,1.59L1.56,20z"/>
		<g>
			<path class="st3" d="M4.45,67.65c0.87,0,1.57,0.72,1.57,1.6l-0.1,16.68c0,0.88-0.72,1.58-1.59,1.58l-2.76-0.02
				C0.7,87.49,0,86.77,0,85.9l0.1-16.68c0.01-0.88,0.72-1.58,1.59-1.58L4.45,67.65z"/>
			<path class="st3" d="M19.72,86.11c-0.01,0.88-0.72,1.58-1.59,1.57L1.57,87.53C0.7,87.52,0,86.8,0.01,85.92l0.03-2.78
				c0.01-0.88,0.72-1.58,1.59-1.57l16.56,0.16c0.87,0.01,1.57,0.73,1.56,1.6L19.72,86.11z"/>
		</g>
	</g>
</g>
<g id="Wedger_layer">
	<g>
		<path d="M118.42,35.63l-1.12-6.14l-1.12,6.14l-3.83,18.57h-6.16l-9-31.75h7.04l4.2,18.18l0.9,5.06l0.93-4.95l3.58-18.29h7
			l3.77,18.18l0.97,5.06l0.97-4.87l4.24-18.37h6.74l-8.94,31.75h-6.33L118.42,35.63z"/>
		<path d="M165.78,48.49v5.71h-24.06V22.44h23.29v5.62h-16.8v6.74h15.42v5.51h-15.42v8.16H165.78z"/>
		<path d="M194.95,27.16c1.11,1.58,1.86,3.29,2.26,5.13c0.4,1.84,0.6,3.59,0.6,5.26c0,4.22-0.85,7.8-2.54,10.73
			c-2.3,3.95-5.84,5.92-10.64,5.92h-13.68V22.44h13.68c1.97,0.03,3.6,0.26,4.91,0.69C191.77,23.87,193.57,25.21,194.95,27.16z
			 M189.56,30.54c-1.02-1.72-3.04-2.58-6.05-2.58h-6.12v20.72h6.12c3.13,0,5.31-1.54,6.55-4.63c0.67-1.69,1.01-3.71,1.01-6.05
			C191.07,34.77,190.57,32.28,189.56,30.54z"/>
		<path d="M216.83,27.1c-2.56,0-4.66,0.97-6.3,2.9c-1.64,1.93-2.47,4.84-2.47,8.71c0,3.91,0.89,6.67,2.67,8.29
			c1.78,1.62,3.81,2.43,6.07,2.43c2.23,0,4.05-0.64,5.47-1.93c1.42-1.28,2.3-2.97,2.63-5.05h-7.35v-5.3h13.23v17.04h-4.39
			l-0.67-3.96c-1.28,1.51-2.43,2.57-3.45,3.19c-1.75,1.08-3.91,1.62-6.46,1.62c-4.21,0-7.65-1.46-10.34-4.37
			c-2.8-2.93-4.2-6.94-4.2-12.02c0-5.14,1.41-9.26,4.24-12.36c2.83-3.1,6.57-4.65,11.22-4.65c4.04,0,7.28,1.02,9.73,3.07
			c2.45,2.05,3.85,4.6,4.21,7.66h-6.53c-0.5-2.17-1.73-3.68-3.68-4.54C219.38,27.33,218.17,27.1,216.83,27.1z"/>
		<path d="M261.38,48.49v5.71h-24.06V22.44h23.28v5.62h-16.8v6.74h15.42v5.51H243.8v8.16H261.38z"/>
		<path d="M287.42,23.26c1.19,0.5,2.2,1.24,3.04,2.22c0.69,0.8,1.24,1.69,1.64,2.67c0.4,0.98,0.6,2.09,0.6,3.34
			c0,1.51-0.38,2.99-1.14,4.45c-0.76,1.46-2.02,2.49-3.77,3.09c1.46,0.59,2.5,1.43,3.11,2.51c0.61,1.08,0.92,2.74,0.92,4.96v2.13
			c0,1.45,0.06,2.43,0.17,2.95c0.17,0.82,0.57,1.42,1.21,1.81v0.8h-7.3c-0.2-0.7-0.34-1.27-0.43-1.7c-0.17-0.89-0.27-1.8-0.28-2.74
			l-0.04-2.95c-0.03-2.02-0.4-3.37-1.11-4.05c-0.71-0.67-2.04-1.01-4-1.01h-6.85v12.45h-6.48V22.44h15.57
			C284.5,22.49,286.21,22.76,287.42,23.26z M286.04,32.4c0-1.92-0.64-3.22-1.92-3.88c-0.72-0.37-1.8-0.56-3.23-0.56h-7.71v8.53h7.52
			c1.49,0,2.61-0.17,3.36-0.52C285.38,35.37,286.04,34.18,286.04,32.4z"/>
	</g>
</g>
</svg>
